<?xml version="1.0" standalone="no"?><!DOCTYPE svg PUBLIC "-//W3C//DTD SVG 1.1//EN" "http://www.w3.org/Graphics/SVG/1.1/DTD/svg11.dtd"><svg t="1557126876716" class="icon" style="" viewBox="0 0 1024 1024" version="1.1" xmlns="http://www.w3.org/2000/svg" p-id="1037" xmlns:xlink="http://www.w3.org/1999/xlink" width="200" height="200"><defs><style type="text/css"></style></defs><path d="M975.385859 447.353535V225.228283c0-48.484848-37.624242-88.177778-83.523233-88.177778H132.137374C86.109091 137.050505 48.614141 176.743434 48.614141 225.228283v222.254545c36.072727 4.913131 62.707071 23.660606 62.707071 64.775758s-26.634343 59.733333-62.707071 64.775757v222.254546c0 48.484848 37.624242 88.177778 83.523233 88.177778H891.60404c46.028283 0 83.523232-39.692929 83.523233-88.177778V576.775758c-36.072727-4.913131-62.707071-23.660606-62.707071-64.775758 0.258586-40.985859 26.892929-59.60404 62.965657-64.646465z m-44.218182 162.779798v188.767677c0 23.919192-18.10101 44.218182-39.563637 44.218182h-81.842424v-44.218182c0-12.153535-9.826263-21.979798-21.979798-21.979798s-21.979798 9.826263-21.979798 21.979798v44.218182H258.19798v-44.218182c0-12.153535-9.826263-21.979798-21.979798-21.979798s-21.979798 9.826263-21.979798 21.979798v44.218182H132.266667c-21.462626 0-39.563636-20.169697-39.563637-44.218182v-188.767677C132.654545 592.808081 155.410101 558.157576 155.410101 512c0-46.028283-22.884848-80.808081-62.707071-98.133333v-188.767677c0-23.919192 18.10101-44.218182 39.563637-44.218182H214.109091v44.218182c0 12.153535 9.826263 21.979798 21.979798 21.979798s21.979798-9.826263 21.979798-21.979798v-44.218182h507.60404v44.218182c0 12.153535 9.826263 21.979798 21.979798 21.979798s21.979798-9.826263 21.979798-21.979798v-44.218182h81.842424c21.462626 0 39.563636 20.169697 39.563637 44.218182v188.767677C891.086869 431.191919 868.331313 465.842424 868.331313 512c0.129293 46.157576 23.014141 80.937374 62.836364 98.133333z m0 0" fill="" p-id="1038"></path><path d="M344.953535 698.311111c-12.670707-6.852525-23.531313-12.024242-32.581818-15.515151 9.179798-12.670707 20.557576-37.236364 34.391919-73.826263 11.377778 4.525253 22.367677 8.533333 32.581819 12.024242-13.834343 34.391919-25.341414 60.121212-34.39192 77.317172zM526.99798 342.884848h120.242424c12.541414 0 29.737374-0.517172 51.458586-1.680808v27.539394c-17.19596-1.163636-33.745455-1.680808-49.777778-1.680808H526.99798V394.343434h135.628283c-1.163636 17.19596-2.068687 37.494949-2.585859 60.89697-0.646465 23.531313 0.258586 44.993939 2.585859 64.387879H631.725253c5.688889 5.688889 26.892929 22.367677 63.482828 49.777778-8.016162 5.688889-17.19596 13.187879-27.539394 22.367676-10.343434-8.016162-20.040404-16.032323-29.220202-24.048484-21.721212 1.163636-60.89697 2.844444-117.656566 5.171717-56.630303 2.327273-115.329293 6.852525-175.967677 13.70505-4.525253-11.377778-8.016162-23.40202-10.343434-36.072727 26.375758 0 51.846465-0.258586 76.412121-0.905051 24.565657-0.517172 52.363636-0.905051 83.264647-0.90505V519.757576H370.553535c1.163636-30.90101 1.680808-52.622222 1.680808-65.29293 0-12.541414-0.646465-32.581818-1.680808-60.121212h123.604041v-27.539394h-99.555556c-25.212121 0-48.614141 1.163636-70.464646 3.490909v-29.220202c21.721212 1.163636 44.606061 1.680808 68.654545 1.680809h101.365657c0-11.377778-0.646465-24.565657-1.680808-39.434344h36.072727c-1.034343 16.032323-1.551515 29.220202-1.551515 39.563636z m-32.711111 101.236364v-25.729293h-89.341414v25.729293h89.341414z m0 51.587879v-27.539394h-89.341414v27.539394h89.341414z m-49.777778 137.309091c0 9.179798 0.517172 17.971717 1.680808 26.634343 1.163636 8.533333 9.69697 12.929293 25.729293 12.929293h82.488889c11.377778 0 18.876768-2.585859 22.367677-7.757576s6.852525-15.773737 10.343434-31.80606c10.343434 6.852525 22.367677 12.024242 36.072727 15.515151-6.852525 24.048485-13.446465 38.012121-19.781818 42.020202-6.335354 4.008081-14.092929 5.947475-23.143434 5.947475H448c-20.557576 0-31.806061-5.171717-33.486869-15.515151s-2.585859-22.367677-2.585858-36.072728c0-14.868687-0.646465-29.220202-1.680808-42.925252h36.072727c-1.292929 11.636364-1.810101 21.850505-1.810101 31.030303z m103.046465 1.680808l-30.901011 15.515151c-5.688889-8.016162-16.549495-23.40202-32.581818-46.416161 8.016162-5.688889 16.549495-11.377778 25.729293-17.19596 17.19596 21.850505 29.737374 37.882828 37.753536 48.09697zM626.553535 444.121212v-25.729293h-99.555555v25.729293h99.555555z m0 51.587879v-27.539394h-99.555555v27.539394h99.555555z m-10.343434 49.777778l-12.024242-8.533334L621.381818 519.757576h-94.383838v29.220202c21.721212-1.163636 51.458586-2.327273 89.212121-3.490909z m96.193939 115.070707c-11.507071 6.852525-21.721212 13.705051-30.90101 20.557576-10.343434-17.19596-29.220202-39.434343-56.630303-66.973738 6.852525-5.688889 15.515152-12.541414 25.729293-20.557576 33.09899 34.262626 53.785859 56.630303 61.80202 66.973738z" fill="" p-id="1039"></path></svg>